# xmcd
#
# Track frame offsets:
#	150
#	19056
#	31449
#	49393
#	62948
#	74376
#	90793
#	108617
#	117435
#	132714
#	145961
#	161467
#	180333
#	196909
#	210998
#	230180
#	241545
#	262348
#	277465
#	285873
#
# Disc length: 3945 seconds
# Revision: 0
# Processed by: cddbd v1.5.2PL0 Copyright (c) Steve Scherf et al.
# Submitted via: dBpowerAMP V12.0
#
DISCID=300f6714
DTITLE=Trails and Rails - Western Tales
DYEAR=2011
DGENRE=Western
TTITLE0=Coyote Ridge
TTITLE1=McGee Creek
TTITLE2=Joaquin
TTITLE3=Wind in the Wire
TTITLE4=Down the California Trail
TTITLE5=Fifty Years Ago
TTITLE6=Waltz for Marie
TTITLE7=Pioneer Medley
TTITLE8=Hawaiian Rough Rider
TTITLE9=Swing a Cowboy Song
TTITLE10=Train Back to Texas
TTITLE11=Mountains of the Heart
TTITLE12=Rambler, Gambler
TTITLE13=Old House
TTITLE14=Hills of Aberdeen
TTITLE15=Guess I'll Have to Stay
TTITLE16=Up on the High Ground
TTITLE17=Outbound Train
TTITLE18=Dear Friends
TTITLE19=Sunflower Dance
EXTD=
EXTT0=
EXTT1=
EXTT2=
EXTT3=
EXTT4=
EXTT5=
EXTT6=
EXTT7=
EXTT8=
EXTT9=
EXTT10=
EXTT11=
EXTT12=
EXTT13=
EXTT14=
EXTT15=
EXTT16=
EXTT17=
EXTT18=
EXTT19=
PLAYORDER=
